<?xml version="1.0" encoding="UTF-8" standalone="no"?>
<!DOCTYPE svg PUBLIC "-//W3C//DTD SVG 1.1//EN"
 "http://www.w3.org/Graphics/SVG/1.1/DTD/svg11.dtd">
<!-- Generated by graphviz version 7.0.1 (20221109.1506)
 -->
<!-- Pages: 1 -->
<svg width="563pt" height="404pt"
 viewBox="0.00 0.00 563.17 404.00" xmlns="http://www.w3.org/2000/svg" xmlns:xlink="http://www.w3.org/1999/xlink">
<g id="graph0" class="graph" transform="scale(1 1) rotate(0) translate(4 400)">
<polygon fill="white" stroke="none" points="-4,4 -4,-400 559.17,-400 559.17,4 -4,4"/>
<!-- [root] azurerm_resource_group.deploy1 -->
<g id="node1" class="node">
<title>[root] azurerm_resource_group.deploy1</title>
<polygon fill="none" stroke="black" points="380.59,-108 174.59,-108 174.59,-72 380.59,-72 380.59,-108"/>
<text text-anchor="middle" x="277.59" y="-86.3" font-family="Times New Roman,serif" font-size="14.00">azurerm_resource_group.deploy1</text>
</g>
<!-- [root] provider[&quot;registry.terraform.io/hashicorp/azurerm&quot;] -->
<g id="node4" class="node">
<title>[root] provider[&quot;registry.terraform.io/hashicorp/azurerm&quot;]</title>
<polygon fill="none" stroke="black" points="277.59,-36 -0.09,-18 277.59,0 555.26,-18 277.59,-36"/>
<text text-anchor="middle" x="277.59" y="-14.3" font-family="Times New Roman,serif" font-size="14.00">provider[&quot;registry.terraform.io/hashicorp/azurerm&quot;]</text>
</g>
<!-- [root] azurerm_resource_group.deploy1&#45;&gt;[root] provider[&quot;registry.terraform.io/hashicorp/azurerm&quot;] -->
<g id="edge1" class="edge">
<title>[root] azurerm_resource_group.deploy1&#45;&gt;[root] provider[&quot;registry.terraform.io/hashicorp/azurerm&quot;]</title>
<path fill="none" stroke="black" d="M277.59,-71.7C277.59,-64.41 277.59,-55.73 277.59,-47.54"/>
<polygon fill="black" stroke="black" points="281.09,-47.62 277.59,-37.62 274.09,-47.62 281.09,-47.62"/>
</g>
<!-- [root] azurerm_resource_group.deploy2 -->
<g id="node2" class="node">
<title>[root] azurerm_resource_group.deploy2</title>
<polygon fill="none" stroke="black" points="380.59,-180 174.59,-180 174.59,-144 380.59,-144 380.59,-180"/>
<text text-anchor="middle" x="277.59" y="-158.3" font-family="Times New Roman,serif" font-size="14.00">azurerm_resource_group.deploy2</text>
</g>
<!-- [root] azurerm_resource_group.deploy2&#45;&gt;[root] azurerm_resource_group.deploy1 -->
<g id="edge2" class="edge">
<title>[root] azurerm_resource_group.deploy2&#45;&gt;[root] azurerm_resource_group.deploy1</title>
<path fill="none" stroke="black" d="M277.59,-143.7C277.59,-136.41 277.59,-127.73 277.59,-119.54"/>
<polygon fill="black" stroke="black" points="281.09,-119.62 277.59,-109.62 274.09,-119.62 281.09,-119.62"/>
</g>
<!-- [root] azurerm_resource_group.deploy3 -->
<g id="node3" class="node">
<title>[root] azurerm_resource_group.deploy3</title>
<polygon fill="none" stroke="black" points="380.59,-252 174.59,-252 174.59,-216 380.59,-216 380.59,-252"/>
<text text-anchor="middle" x="277.59" y="-230.3" font-family="Times New Roman,serif" font-size="14.00">azurerm_resource_group.deploy3</text>
</g>
<!-- [root] azurerm_resource_group.deploy3&#45;&gt;[root] azurerm_resource_group.deploy2 -->
<g id="edge3" class="edge">
<title>[root] azurerm_resource_group.deploy3&#45;&gt;[root] azurerm_resource_group.deploy2</title>
<path fill="none" stroke="black" d="M277.59,-215.7C277.59,-208.41 277.59,-199.73 277.59,-191.54"/>
<polygon fill="black" stroke="black" points="281.09,-191.62 277.59,-181.62 274.09,-191.62 281.09,-191.62"/>
</g>
<!-- [root] provider[&quot;registry.terraform.io/hashicorp/azurerm&quot;] (close) -->
<g id="node5" class="node">
<title>[root] provider[&quot;registry.terraform.io/hashicorp/azurerm&quot;] (close)</title>
<ellipse fill="none" stroke="black" cx="277.59" cy="-306" rx="246.96" ry="18"/>
<text text-anchor="middle" x="277.59" y="-302.3" font-family="Times New Roman,serif" font-size="14.00">[root] provider[&quot;registry.terraform.io/hashicorp/azurerm&quot;] (close)</text>
</g>
<!-- [root] provider[&quot;registry.terraform.io/hashicorp/azurerm&quot;] (close)&#45;&gt;[root] azurerm_resource_group.deploy3 -->
<g id="edge4" class="edge">
<title>[root] provider[&quot;registry.terraform.io/hashicorp/azurerm&quot;] (close)&#45;&gt;[root] azurerm_resource_group.deploy3</title>
<path fill="none" stroke="black" d="M277.59,-287.7C277.59,-280.41 277.59,-271.73 277.59,-263.54"/>
<polygon fill="black" stroke="black" points="281.09,-263.62 277.59,-253.62 274.09,-263.62 281.09,-263.62"/>
</g>
<!-- [root] root -->
<g id="node6" class="node">
<title>[root] root</title>
<ellipse fill="none" stroke="black" cx="277.59" cy="-378" rx="49.29" ry="18"/>
<text text-anchor="middle" x="277.59" y="-374.3" font-family="Times New Roman,serif" font-size="14.00">[root] root</text>
</g>
<!-- [root] root&#45;&gt;[root] provider[&quot;registry.terraform.io/hashicorp/azurerm&quot;] (close) -->
<g id="edge5" class="edge">
<title>[root] root&#45;&gt;[root] provider[&quot;registry.terraform.io/hashicorp/azurerm&quot;] (close)</title>
<path fill="none" stroke="black" d="M277.59,-359.7C277.59,-352.41 277.59,-343.73 277.59,-335.54"/>
<polygon fill="black" stroke="black" points="281.09,-335.62 277.59,-325.62 274.09,-335.62 281.09,-335.62"/>
</g>
</g>
</svg>
